<svg xmlns="http://www.w3.org/2000/svg" width="36.75" viewBox="0 0 36.75 36.75" height="36.75" version="1.0"><defs><clipPath id="a"><path d="M 1 8 L 21.304688 8 L 21.304688 29 L 1 29 Z M 1 8"/></clipPath><clipPath id="b"><path d="M 7 28 L 16 28 L 16 36.5 L 7 36.5 Z M 7 28"/></clipPath><clipPath id="c"><path d="M 0.304688 7 L 21 7 L 21 29 L 0.304688 29 Z M 0.304688 7"/></clipPath><clipPath id="d"><path d="M 6 27 L 16 27 L 16 36.5 L 6 36.5 Z M 6 27"/></clipPath></defs><g clip-path="url(#a)"><path fill="#FF6150" d="M 11.335938 29 C 10.679688 29 10.035156 28.9375 9.394531 28.808594 C 8.753906 28.679688 8.132812 28.488281 7.527344 28.234375 C 6.925781 27.980469 6.351562 27.671875 5.808594 27.304688 C 5.265625 26.9375 4.765625 26.519531 4.304688 26.054688 C 3.84375 25.585938 3.429688 25.078125 3.066406 24.527344 C 2.703125 23.980469 2.398438 23.398438 2.148438 22.789062 C 1.898438 22.179688 1.710938 21.550781 1.582031 20.902344 C 1.453125 20.253906 1.390625 19.597656 1.390625 18.9375 C 1.390625 18.277344 1.453125 17.625 1.582031 16.976562 C 1.710938 16.328125 1.898438 15.699219 2.148438 15.089844 C 2.398438 14.476562 2.703125 13.898438 3.066406 13.347656 C 3.429688 12.800781 3.84375 12.292969 4.304688 11.824219 C 4.765625 11.355469 5.265625 10.941406 5.808594 10.574219 C 6.351562 10.207031 6.925781 9.894531 7.527344 9.644531 C 8.132812 9.390625 8.753906 9.199219 9.394531 9.070312 C 10.035156 8.941406 10.679688 8.878906 11.335938 8.878906 C 11.988281 8.878906 12.632812 8.941406 13.273438 9.070312 C 13.914062 9.199219 14.535156 9.390625 15.140625 9.644531 C 15.742188 9.894531 16.316406 10.207031 16.859375 10.574219 C 17.402344 10.941406 17.902344 11.355469 18.363281 11.824219 C 18.828125 12.292969 19.238281 12.800781 19.601562 13.347656 C 19.964844 13.898438 20.269531 14.476562 20.519531 15.089844 C 20.769531 15.699219 20.957031 16.328125 21.085938 16.976562 C 21.214844 17.625 21.277344 18.277344 21.277344 18.9375 C 21.277344 19.597656 21.214844 20.253906 21.085938 20.902344 C 20.957031 21.550781 20.769531 22.179688 20.519531 22.789062 C 20.269531 23.398438 19.964844 23.980469 19.601562 24.527344 C 19.238281 25.078125 18.828125 25.585938 18.363281 26.054688 C 17.902344 26.519531 17.402344 26.9375 16.859375 27.304688 C 16.316406 27.671875 15.742188 27.980469 15.140625 28.234375 C 14.535156 28.488281 13.914062 28.679688 13.273438 28.808594 C 12.632812 28.9375 11.988281 29 11.335938 29 Z M 11.335938 29"/></g><path fill="#FF6150" d="M 14.402344 1.261719 C 15.734375 1.261719 16.304688 2.222656 15.625 3.40625 L 13.019531 7.96875 C 12.339844 9.152344 11.253906 9.152344 10.574219 7.96875 L 7.964844 3.40625 C 7.285156 2.222656 7.855469 1.261719 9.1875 1.261719 Z M 14.402344 1.261719"/><g clip-path="url(#b)"><path fill="#FF6150" d="M 9.214844 36.585938 C 7.855469 36.585938 7.3125 35.625 7.992188 34.445312 L 10.601562 29.878906 C 11.28125 28.699219 12.367188 28.699219 13.046875 29.878906 L 15.652344 34.445312 C 16.332031 35.625 15.789062 36.585938 14.429688 36.585938 Z M 9.214844 36.585938"/></g><g clip-path="url(#c)"><path fill="#1C1C1C" d="M 0.304688 18.113281 C 0.304688 12.394531 4.894531 7.777344 10.519531 7.777344 C 16.144531 7.777344 20.734375 12.421875 20.734375 18.113281 C 20.734375 23.804688 16.144531 28.449219 10.519531 28.449219 C 4.894531 28.449219 0.304688 23.804688 0.304688 18.113281 Z M 20.21875 18.113281 C 20.21875 12.699219 15.871094 8.328125 10.546875 8.328125 C 5.222656 8.328125 0.875 12.726562 0.875 18.113281 C 0.875 23.53125 5.222656 27.902344 10.546875 27.902344 C 15.871094 27.902344 20.21875 23.503906 20.21875 18.113281 Z M 20.21875 18.113281"/></g><path fill="#1C1C1C" d="M 6.582031 1.621094 C 6.582031 0.738281 7.285156 0.164062 8.375 0.164062 L 13.589844 0.164062 C 14.675781 0.164062 15.382812 0.738281 15.382812 1.621094 C 15.382812 1.976562 15.273438 2.335938 15.054688 2.71875 L 12.449219 7.28125 C 12.066406 7.941406 11.550781 8.300781 10.980469 8.300781 C 10.410156 8.300781 9.894531 7.941406 9.515625 7.28125 L 6.90625 2.71875 C 6.6875 2.335938 6.582031 1.976562 6.582031 1.621094 Z M 14.8125 1.621094 C 14.8125 1.042969 14.351562 0.710938 13.5625 0.710938 L 8.347656 0.710938 C 7.558594 0.710938 7.097656 1.042969 7.097656 1.621094 C 7.097656 1.867188 7.179688 2.140625 7.339844 2.445312 L 9.949219 7.007812 C 10.21875 7.503906 10.574219 7.75 10.925781 7.75 C 11.28125 7.75 11.632812 7.476562 11.90625 7.007812 L 14.511719 2.445312 C 14.730469 2.140625 14.8125 1.867188 14.8125 1.621094 Z M 14.8125 1.621094"/><g clip-path="url(#d)"><path fill="#1C1C1C" d="M 6.632812 34.582031 C 6.632812 34.222656 6.742188 33.867188 6.960938 33.480469 L 9.570312 28.917969 C 9.949219 28.257812 10.464844 27.902344 11.035156 27.902344 C 11.605469 27.902344 12.121094 28.257812 12.503906 28.917969 L 15.109375 33.480469 C 15.328125 33.867188 15.4375 34.222656 15.4375 34.582031 C 15.4375 35.460938 14.730469 36.039062 13.644531 36.039062 L 8.425781 36.039062 C 7.339844 36.039062 6.632812 35.460938 6.632812 34.582031 Z M 14.867188 34.582031 C 14.867188 34.332031 14.785156 34.058594 14.621094 33.757812 L 12.011719 29.191406 C 11.742188 28.699219 11.386719 28.449219 11.035156 28.449219 C 10.683594 28.449219 10.328125 28.726562 10.058594 29.191406 L 7.449219 33.757812 C 7.285156 34.03125 7.203125 34.332031 7.203125 34.582031 C 7.203125 35.160156 7.667969 35.488281 8.453125 35.488281 L 13.617188 35.488281 C 14.402344 35.488281 14.867188 35.160156 14.867188 34.582031 Z M 14.867188 34.582031"/></g><path fill="#1C1C1C" d="M 11.441406 25.703125 C 11.441406 25.5625 11.523438 25.453125 11.660156 25.425781 C 16.820312 24.410156 17.417969 20.421875 17.445312 20.257812 C 17.472656 20.121094 17.609375 20.011719 17.746094 20.011719 C 17.882812 20.011719 17.988281 20.175781 17.988281 20.3125 C 17.988281 20.367188 17.339844 24.820312 11.769531 25.949219 C 11.632812 25.976562 11.46875 25.894531 11.441406 25.730469 C 11.441406 25.730469 11.441406 25.730469 11.441406 25.703125 Z M 11.441406 25.703125"/><path fill="#1C1C1C" d="M 10.738281 26.085938 C 10.667969 26.085938 10.613281 26.0625 10.5625 26.015625 C 10.515625 25.964844 10.492188 25.90625 10.492188 25.839844 C 10.492188 25.769531 10.515625 25.710938 10.5625 25.664062 C 10.613281 25.617188 10.667969 25.589844 10.738281 25.589844 C 10.804688 25.589844 10.863281 25.617188 10.910156 25.664062 C 10.957031 25.710938 10.980469 25.769531 10.980469 25.839844 C 10.980469 25.90625 10.957031 25.964844 10.910156 26.015625 C 10.863281 26.0625 10.804688 26.085938 10.738281 26.085938 Z M 10.738281 26.085938"/><path fill="#1C1C1C" d="M 11.117188 33.316406 C 11.050781 33.316406 10.992188 33.292969 10.945312 33.242188 C 10.894531 33.195312 10.871094 33.136719 10.871094 33.070312 C 10.871094 33 10.894531 32.941406 10.945312 32.894531 C 10.992188 32.847656 11.050781 32.820312 11.117188 32.820312 C 11.183594 32.820312 11.242188 32.847656 11.289062 32.894531 C 11.335938 32.941406 11.363281 33 11.363281 33.070312 C 11.363281 33.136719 11.335938 33.195312 11.289062 33.242188 C 11.242188 33.292969 11.183594 33.316406 11.117188 33.316406 Z M 11.117188 33.316406"/><path fill="#1C1C1C" d="M 11.117188 28.53125 C 11.117188 28.421875 11.199219 28.3125 11.308594 28.285156 C 11.441406 28.230469 11.605469 28.3125 11.660156 28.449219 L 12.394531 30.648438 C 12.449219 30.789062 12.367188 30.953125 12.230469 31.007812 C 12.09375 31.0625 11.933594 30.980469 11.878906 30.84375 L 11.144531 28.644531 C 11.117188 28.589844 11.117188 28.558594 11.117188 28.53125 Z M 11.117188 28.53125"/><path fill="#1C1C1C" d="M 9.757812 30.761719 C 9.757812 30.730469 9.757812 30.730469 9.757812 30.703125 L 10.246094 28.449219 C 10.273438 28.3125 10.4375 28.203125 10.574219 28.230469 C 10.710938 28.257812 10.816406 28.421875 10.789062 28.558594 L 10.300781 30.816406 C 10.273438 30.953125 10.113281 31.0625 9.976562 31.035156 C 9.839844 31.007812 9.757812 30.898438 9.757812 30.761719 Z M 9.757812 30.761719"/><path fill="#1C1C1C" d="M 10.65625 28.53125 C 10.65625 28.394531 10.765625 28.257812 10.898438 28.257812 C 11.0625 28.257812 11.171875 28.367188 11.199219 28.503906 L 11.386719 32.273438 C 11.386719 32.410156 11.28125 32.546875 11.144531 32.574219 C 10.980469 32.574219 10.871094 32.464844 10.84375 32.328125 Z M 10.65625 28.53125"/><path fill="#1C1C1C" d="M 9.839844 3.792969 C 9.773438 3.792969 9.714844 3.765625 9.667969 3.71875 C 9.621094 3.671875 9.59375 3.613281 9.59375 3.542969 C 9.59375 3.476562 9.621094 3.417969 9.667969 3.367188 C 9.714844 3.320312 9.773438 3.296875 9.839844 3.296875 C 9.90625 3.296875 9.964844 3.320312 10.011719 3.367188 C 10.0625 3.417969 10.085938 3.476562 10.085938 3.542969 C 10.085938 3.613281 10.0625 3.671875 10.011719 3.71875 C 9.964844 3.765625 9.90625 3.792969 9.839844 3.792969 Z M 9.839844 3.792969"/><path fill="#1C1C1C" d="M 11.035156 7.886719 L 11.0625 5.550781 C 11.0625 5.386719 11.199219 5.277344 11.335938 5.277344 C 11.496094 5.277344 11.605469 5.386719 11.605469 5.550781 L 11.578125 7.859375 C 11.578125 8.023438 11.441406 8.136719 11.308594 8.136719 C 11.171875 8.164062 11.035156 8.050781 11.035156 7.886719 Z M 11.035156 7.886719"/><path fill="#1A1A1A" d="M 9.730469 4.3125 C 9.730469 4.203125 9.8125 4.09375 9.921875 4.039062 C 10.058594 4.011719 10.21875 4.09375 10.246094 4.230469 L 11.199219 7.859375 C 11.226562 7.996094 11.144531 8.164062 11.007812 8.191406 C 10.871094 8.21875 10.710938 8.136719 10.683594 7.996094 L 9.730469 4.367188 C 9.730469 4.339844 9.730469 4.3125 9.730469 4.3125 Z M 9.730469 4.3125"/></svg>